<svg xmlns="http://www.w3.org/2000/svg" xmlns:xlink="http://www.w3.org/1999/xlink" width="500" zoomAndPan="magnify" viewBox="0 0 375 374.999991" height="500" preserveAspectRatio="xMidYMid meet" version="1.2"><defs><clipPath id="c0cb026905"><path d="M 0 254.03125 L 119.847656 254.03125 L 119.847656 365.308594 L 0 365.308594 Z M 0 254.03125 "/></clipPath><clipPath id="a7c66b0526"><path d="M 114.597656 365.308594 L 5.234375 365.308594 C 3.839844 365.308594 2.503906 364.757812 1.519531 363.773438 C 0.535156 362.789062 -0.015625 361.453125 -0.015625 360.058594 L -0.015625 259.28125 C -0.015625 257.886719 0.535156 256.550781 1.519531 255.566406 C 2.503906 254.582031 3.839844 254.03125 5.234375 254.03125 L 114.597656 254.03125 C 115.988281 254.03125 117.324219 254.582031 118.308594 255.566406 C 119.292969 256.550781 119.847656 257.886719 119.847656 259.28125 L 119.847656 360.058594 C 119.847656 361.453125 119.292969 362.789062 118.308594 363.773438 C 117.324219 364.757812 115.988281 365.308594 114.597656 365.308594 Z M 114.597656 365.308594 "/></clipPath><clipPath id="5511cf3201"><path d="M 146 146.367188 L 374.976562 146.367188 L 374.976562 229.828125 L 146 229.828125 Z M 146 146.367188 "/></clipPath><clipPath id="b99b531619"><path d="M 374.976562 151.617188 L 374.976562 224.578125 C 374.976562 225.972656 374.425781 227.304688 373.441406 228.289062 C 372.457031 229.277344 371.121094 229.828125 369.726562 229.828125 L 151.304688 229.828125 C 149.914062 229.828125 148.578125 229.277344 147.59375 228.289062 C 146.609375 227.304688 146.054688 225.972656 146.054688 224.578125 L 146.054688 151.617188 C 146.054688 150.226562 146.609375 148.890625 147.59375 147.90625 C 148.578125 146.921875 149.914062 146.367188 151.304688 146.367188 L 369.726562 146.367188 C 371.121094 146.367188 372.457031 146.921875 373.441406 147.90625 C 374.425781 148.890625 374.976562 150.226562 374.976562 151.617188 Z M 374.976562 151.617188 "/></clipPath><clipPath id="4cefefda4d"><path d="M 146 281.882812 L 374.976562 281.882812 L 374.976562 365.34375 L 146 365.34375 Z M 146 281.882812 "/></clipPath><clipPath id="01f6b3c607"><path d="M 374.976562 287.132812 L 374.976562 360.09375 C 374.976562 361.484375 374.425781 362.820312 373.441406 363.804688 C 372.457031 364.789062 371.121094 365.34375 369.726562 365.34375 L 151.304688 365.34375 C 149.914062 365.34375 148.578125 364.789062 147.59375 363.804688 C 146.609375 362.820312 146.054688 361.484375 146.054688 360.09375 L 146.054688 287.132812 C 146.054688 285.738281 146.609375 284.402344 147.59375 283.417969 C 148.578125 282.433594 149.914062 281.882812 151.304688 281.882812 L 369.726562 281.882812 C 371.121094 281.882812 372.457031 282.433594 373.441406 283.417969 C 374.425781 284.402344 374.976562 285.738281 374.976562 287.132812 Z M 374.976562 287.132812 "/></clipPath><clipPath id="335f7d7059"><path d="M 291.539062 146.359375 L 375 146.359375 L 375 365.441406 L 291.539062 365.441406 Z M 291.539062 146.359375 "/></clipPath><clipPath id="039f82ffb3"><path d="M 296.789062 146.359375 L 369.75 146.359375 C 371.140625 146.359375 372.476562 146.910156 373.460938 147.894531 C 374.445312 148.878906 375 150.214844 375 151.609375 L 375 360.082031 C 375 361.472656 374.445312 362.808594 373.460938 363.792969 C 372.476562 364.777344 371.140625 365.332031 369.75 365.332031 L 296.789062 365.332031 C 295.398438 365.332031 294.0625 364.777344 293.078125 363.792969 C 292.09375 362.808594 291.539062 361.472656 291.539062 360.082031 L 291.539062 151.609375 C 291.539062 150.214844 292.09375 148.878906 293.078125 147.894531 C 294.0625 146.910156 295.398438 146.359375 296.789062 146.359375 Z M 296.789062 146.359375 "/></clipPath><clipPath id="1a36ac926a"><path d="M 146.078125 10.84375 L 229.539062 10.84375 L 229.539062 229.929688 L 146.078125 229.929688 Z M 146.078125 10.84375 "/></clipPath><clipPath id="d43f07a6a4"><path d="M 151.328125 10.84375 L 224.289062 10.84375 C 225.679688 10.84375 227.015625 11.398438 228 12.382812 C 228.984375 13.367188 229.539062 14.703125 229.539062 16.09375 L 229.539062 224.566406 C 229.539062 225.960938 228.984375 227.296875 228 228.28125 C 227.015625 229.265625 225.679688 229.816406 224.289062 229.816406 L 151.328125 229.816406 C 149.933594 229.816406 148.601562 229.265625 147.613281 228.28125 C 146.628906 227.296875 146.078125 225.960938 146.078125 224.566406 L 146.078125 16.09375 C 146.078125 14.703125 146.628906 13.367188 147.613281 12.382812 C 148.601562 11.398438 149.933594 10.84375 151.328125 10.84375 Z M 151.328125 10.84375 "/></clipPath><clipPath id="28a487fcab"><path d="M 0.324219 9.679688 L 229.515625 9.679688 L 229.515625 93.140625 L 0.324219 93.140625 Z M 0.324219 9.679688 "/></clipPath><clipPath id="c9aad4b136"><path d="M 229.515625 14.929688 L 229.515625 87.890625 C 229.515625 89.28125 228.964844 90.617188 227.976562 91.601562 C 226.992188 92.585938 225.660156 93.140625 224.265625 93.140625 L 5.84375 93.140625 C 4.453125 93.140625 3.117188 92.585938 2.132812 91.601562 C 1.148438 90.617188 0.59375 89.28125 0.59375 87.890625 L 0.59375 14.929688 C 0.59375 13.535156 1.148438 12.199219 2.132812 11.214844 C 3.117188 10.230469 4.453125 9.679688 5.84375 9.679688 L 224.265625 9.679688 C 225.660156 9.679688 226.992188 10.230469 227.976562 11.214844 C 228.964844 12.199219 229.515625 13.535156 229.515625 14.929688 Z M 229.515625 14.929688 "/></clipPath><clipPath id="3ee736022a"><path d="M 0 11.460938 L 83.460938 11.460938 L 83.460938 230.546875 L 0 230.546875 Z M 0 11.460938 "/></clipPath><clipPath id="229d8d1caa"><path d="M 5.25 11.460938 L 78.210938 11.460938 C 79.601562 11.460938 80.9375 12.015625 81.921875 13 C 82.90625 13.984375 83.460938 15.320312 83.460938 16.710938 L 83.460938 225.1875 C 83.460938 226.578125 82.90625 227.914062 81.921875 228.898438 C 80.9375 229.882812 79.601562 230.4375 78.210938 230.4375 L 5.25 230.4375 C 3.859375 230.4375 2.523438 229.882812 1.539062 228.898438 C 0.554688 227.914062 0 226.578125 0 225.1875 L 0 16.710938 C 0 15.320312 0.554688 13.984375 1.539062 13 C 2.523438 12.015625 3.859375 11.460938 5.25 11.460938 Z M 5.25 11.460938 "/></clipPath><clipPath id="329edd2949"><path d="M 255.007812 9.648438 L 374.984375 9.648438 L 374.984375 120.925781 L 255.007812 120.925781 Z M 255.007812 9.648438 "/></clipPath><clipPath id="095b07b6db"><path d="M 369.734375 120.925781 L 260.367188 120.925781 C 258.976562 120.925781 257.640625 120.375 256.65625 119.390625 C 255.671875 118.40625 255.117188 117.070312 255.117188 115.675781 L 255.117188 14.898438 C 255.117188 13.503906 255.671875 12.167969 256.65625 11.183594 C 257.640625 10.199219 258.976562 9.648438 260.367188 9.648438 L 369.734375 9.648438 C 371.125 9.648438 372.460938 10.199219 373.445312 11.183594 C 374.429688 12.167969 374.984375 13.503906 374.984375 14.898438 L 374.984375 115.675781 C 374.984375 117.070312 374.429688 118.40625 373.445312 119.390625 C 372.460938 120.375 371.125 120.925781 369.734375 120.925781 Z M 369.734375 120.925781 "/></clipPath></defs><g id="767983b9c2"><g clip-rule="nonzero" clip-path="url(#c0cb026905)"><g clip-rule="nonzero" clip-path="url(#a7c66b0526)"><path style=" stroke:none;fill-rule:nonzero;fill:#ffffff;fill-opacity:1;" d="M 119.847656 365.308594 L -0.128906 365.308594 L -0.128906 254.03125 L 119.847656 254.03125 Z M 119.847656 365.308594 "/></g></g><g clip-rule="nonzero" clip-path="url(#5511cf3201)"><g clip-rule="nonzero" clip-path="url(#b99b531619)"><path style=" stroke:none;fill-rule:nonzero;fill:#ffffff;fill-opacity:1;" d="M 374.976562 146.367188 L 374.976562 229.828125 L 146.113281 229.828125 L 146.113281 146.367188 Z M 374.976562 146.367188 "/></g></g><g clip-rule="nonzero" clip-path="url(#4cefefda4d)"><g clip-rule="nonzero" clip-path="url(#01f6b3c607)"><path style=" stroke:none;fill-rule:nonzero;fill:#ffffff;fill-opacity:1;" d="M 374.976562 281.882812 L 374.976562 365.34375 L 146.113281 365.34375 L 146.113281 281.882812 Z M 374.976562 281.882812 "/></g></g><g clip-rule="nonzero" clip-path="url(#335f7d7059)"><g clip-rule="nonzero" clip-path="url(#039f82ffb3)"><path style=" stroke:none;fill-rule:nonzero;fill:#ffffff;fill-opacity:1;" d="M 291.539062 146.359375 L 375 146.359375 L 375 365.441406 L 291.539062 365.441406 Z M 291.539062 146.359375 "/></g></g><g clip-rule="nonzero" clip-path="url(#1a36ac926a)"><g clip-rule="nonzero" clip-path="url(#d43f07a6a4)"><path style=" stroke:none;fill-rule:nonzero;fill:#ffffff;fill-opacity:1;" d="M 146.078125 10.84375 L 229.539062 10.84375 L 229.539062 229.929688 L 146.078125 229.929688 Z M 146.078125 10.84375 "/></g></g><g clip-rule="nonzero" clip-path="url(#28a487fcab)"><g clip-rule="nonzero" clip-path="url(#c9aad4b136)"><path style=" stroke:none;fill-rule:nonzero;fill:#ffffff;fill-opacity:1;" d="M 229.515625 9.679688 L 229.515625 93.140625 L 0.652344 93.140625 L 0.652344 9.679688 Z M 229.515625 9.679688 "/></g></g><g clip-rule="nonzero" clip-path="url(#3ee736022a)"><g clip-rule="nonzero" clip-path="url(#229d8d1caa)"><path style=" stroke:none;fill-rule:nonzero;fill:#ffffff;fill-opacity:1;" d="M 0 11.460938 L 83.460938 11.460938 L 83.460938 230.546875 L 0 230.546875 Z M 0 11.460938 "/></g></g><g clip-rule="nonzero" clip-path="url(#329edd2949)"><g clip-rule="nonzero" clip-path="url(#095b07b6db)"><path style=" stroke:none;fill-rule:nonzero;fill:#ffffff;fill-opacity:1;" d="M 374.984375 120.925781 L 255.007812 120.925781 L 255.007812 9.648438 L 374.984375 9.648438 Z M 374.984375 120.925781 "/></g></g></g></svg>